<?xml version="1.0" standalone="no"?>
<!DOCTYPE svg PUBLIC "-//W3C//DTD SVG 20010904//EN"
 "http://www.w3.org/TR/2001/REC-SVG-20010904/DTD/svg10.dtd">
<svg version="1.0" xmlns="http://www.w3.org/2000/svg"
 width="692.000000pt" height="692.000000pt" viewBox="0 0 692.000000 692.000000"
 preserveAspectRatio="xMidYMid meet">
<metadata>
Created by potrace 1.11, written by Peter Selinger 2001-2013
</metadata>
<g transform="translate(0.000000,692.000000) scale(0.100000,-0.100000)"
fill="#000000" stroke="none">
<path d="M3347 6895 c-19 -19 -21 -33 -8 -67 12 -31 71 -101 121 -143 38 -32
39 -34 18 -40 -58 -18 -247 -102 -349 -156 -396 -210 -661 -485 -749 -777 -19
-63 -27 -76 -64 -101 -61 -43 -182 -166 -228 -234 -197 -291 -213 -678 -42
-1035 103 -214 310 -454 599 -697 33 -27 62 -52 65 -55 3 -3 34 -30 69 -59
160 -132 294 -268 338 -342 36 -60 50 -130 35 -170 l-10 -26 -99 14 c-262 39
-556 170 -771 345 -190 155 -361 368 -472 589 -39 75 -153 195 -220 229 -26
13 -71 25 -107 28 -131 10 -213 -61 -390 -339 -461 -727 -745 -1478 -810
-2149 -14 -148 -7 -528 12 -620 2 -13 7 -42 11 -65 48 -327 192 -667 406 -957
l50 -68 2843 0 c2699 0 2843 1 2848 18 98 339 112 396 143 597 29 188 38 454
20 625 -41 408 -213 796 -500 1125 -89 102 -275 285 -406 399 -221 193 -333
312 -377 405 -98 205 -80 427 55 694 43 84 67 119 114 162 119 110 281 185
605 279 272 79 328 102 380 151 36 35 43 48 43 81 0 83 -67 153 -182 189 -29
9 -60 19 -68 22 -9 3 4 13 37 28 122 55 221 152 283 280 50 101 70 178 77 286
7 107 -12 177 -63 237 -74 87 -182 117 -320 87 -173 -37 -248 -44 -409 -40
-227 5 -221 2 -279 132 -134 302 -360 625 -552 787 -213 181 -402 256 -684
271 -251 13 -329 20 -650 61 -293 37 -343 40 -363 19z"/>
</g>
</svg>
